<svg xmlns="http://www.w3.org/2000/svg" width="696.25" height="1200" viewBox="0 0 557.000000 960.000000"><g transform="matrix(.1 0 0-.1 0 960)"><path d="m2050 9154c-157-28-299-133-366-271-29-57-29-61-29-228 1-231 22-335 88-434l29-45-4-225c-4-265 4-244-132-357-50-42-131-120-179-175-85-95-92-101-200-153-182-89-381-253-429-356-40-85-50-155-47-328 2-148 0-163-29-272-50-184-73-325-79-472-7-165-3-183 84-388 81-188 86-234 54-416-47-267-46-523 4-720 14-54 24-98 22-99-1-1-23-13-48-28-143-81-251-254-316-505-24-93-28-125-27-247 1-111 6-157 23-220 28-104 98-248 149-305 97-111 254-142 346-69 14 11 26 25 26 30 0 5-31 9-68 9-85 0-176 23-225 57-110 76-201 368-182 583 21 245 135 477 299 613 37 30 47 35 51 23 3-9 8-24 12-33 3-10 9-142 13-293 7-262 8-279 34-358 16-49 33-134 41-210 29-258 68-300 325-348 73-13 135-22 138-19 10 10-35 60-74 82-21 12-78 32-126 44-103 25-148 52-160 94-4 17-15 84-23 150-9 66-30 167-48 225-31 102-32 110-30 265 3 185-8 268-67 505-82 336-81 477 9 943 21 108 35 197 32 197-3 0-20-14-38-32-18-17-34-30-35-27-6 10-92 259-109 319-29 96-25 187 16 440 20 123 38 226 40 228 2 2 22-24 44-57 23-33 45-62 50-65 4-3-5 68-21 157-36 198-42 362-15 449 34 112 146 215 381 352 111 65 141 89 215 167 47 50 148 148 225 217 165 148 153 116 161 397 3 105 9 192 12 194 4 2 42-55 85-125 43-71 97-146 120-167 90-82 300-156 444-157h51l16-100c25-145 26-140-43-189l-61-42-42 15c-57 22-158 43-238 51l-67 7 5 38c8 59-22 130-104 245-41 58-78 105-83 105-8 0 100-271 138-346 23-44 20-54-12-54-11 0-89-17-174-37-132-32-151-39-136-50 27-19 144-16 264 8 120 23 140 22 317-22 148-36 141-38 239 62 72 72 106 87 282 124 117 24 122 23 165-43l39-57-5 38c-3 20-4 37-1 37 2 0 31-20 65-45 34-25 66-45 72-45 15 0 11 3-127 109-66 50-128 91-138 91-36 0-172-32-237-55-36-13-66-23-67-22-1 1-4 42-7 91-6 87-6 88 16 82 125-37 178-46 261-45 50 1 102 4 116 9 25 7 25 7-10 23-31 13-148 35-282 52-27 4-48 10-48 14 0 4 9 33 20 65 54 158 105 467 98 599-6 106-80 469-111 539-42 98-164 186-294 213-84 18-243 17-343-1m482-136c47-46 93-99 103-118 16-31 42-144 92-395 20-104 13-236-21-419-35-181-59-242-111-278-68-48-97-47-232 7-229 92-286 132-342 244-30 58-62 91-190 193-80 63-79 62-36 162 20 48 35 89 32 92-3 3-30-1-61-9l-56-15v91c0 171 49 297 149 389 108 99 228 136 451 137l136 1 86-82"/><path d="m3128 7669c-32-16-58-34-58-39 0-6 24-10 54-10 169 0 354-127 432-298 41-89 54-163 54-316v-118l48-117c86-205 90-223 101-376 9-145 37-205 152-331 105-116 154-215 209-424 22-85 63-226 90-313 65-208 86-292 106-423 18-124 45-214 106-362l43-102 38 6c20 3 37 2 37-3 0-4-23-30-51-58-171-167-260-424-246-704 8-144 34-248 93-371 76-158 178-232 322-232 81 1 134 26 210 101 176 173 262 424 249 725-9 205-57 357-148 460-51 58-106 91-187 111-76 20-127 13-178-21-20-14-37-24-38-22 0 2-21 41-45 88-100 194-133 291-151 450-20 170-41 273-80 395-22 66-53 179-70 250-65 274-94 336-227 477-131 137-140 154-164 292-26 156-62 290-110 412-38 97-40 110-49 261-12 207-23 246-99 376-42 73-84 116-153 160-22 14-180 86-223 102-5 2-36-9-67-26m1690-3251c155-115 213-221 242-448 49-382-168-810-410-810-123 1-249 122-308 298-25 73-26 88-26 267 0 163 4 201 22 270 52 190 137 300 313 407 52 31 98 57 102 57 4 1 33-18 65-41"/><path d="m2580 7078c0-4 16-73 36-155 30-123 36-159 31-215-7-82-27-123-64-133-50-12-193-83-316-157l-121-73h-76c-66 0-82 4-135 33-33 18-106 70-162 117-56 47-104 85-107 85-14 0-4-36 25-91 117-219 431-298 600-151 52 45 105 74 215 121 56 23 111 52 123 65 12 12 44 69 72 127 59 120 60 106-21 274-43 87-99 173-100 153"/><path d="m3346 6870c-2-8-12-40-21-70-9-30-33-92-52-138-42-98-42-116 7-332 40-178 49-317 25-391-16-51-112-244-139-282-9-11-33-19-73-23-60-6-60-6-67 22-13 51-98 274-105 274-3 0-7-53-8-118-1-64-7-142-15-172l-13-55-115-7c-119-7-194-26-244-61l-28-20-67 34c-36 18-69 35-73 37-5 2-8-15-8-37 0-45 13-53 32-18 12 21 13 19 19-28 4-27 8-66 8-86 1-35 0-35-31-31-30 4-26-1 42-50 41-30 76-51 78-47 2 5-6 42-18 84-12 42-20 79-17 81 2 3 65 15 140 29 173 31 249 51 308 81 55 27 76 29 148 12l52-12 38 38 38 37 17-228c10-125 19-252 19-282l2-55-85-34c-76-32-496-143-504-134-2 1 5 26 16 54 21 55 21 53-33 83-15 8-77 67-139 132l-112 118 7-40c12-73 62-160 121-214 31-28 67-54 80-57 20-5 24-12 24-41 0-29-3-34-17-28-47 18-163 35-313 45-196 13-284 30-365 70-111 54-111 54-119 231-7 180-31 307-75 403l-31 70 32 33 32 33h128c70 0 128 2 128 4 0 2-21 27-48 55l-47 52-40-17c-30-12-60-15-122-12-46 2-83 2-83-2 0-3 7-15 15-27 18-26 15-29-52-38-29-4-53-11-53-16 0-4 27-68 59-142 32-73 64-151 70-172 6-22 16-122 21-223 5-100 12-187 15-191 2-5-12-39-32-75l-37-66h-92c-124 0-122 1-113-68 17-119 21-278 10-357-6-43-26-122-43-175-28-84-32-109-32-210-1-133 16-206 70-317 31-62 74-120 74-99 0 3-14 77-32 164-43 211-44 324-6 437 37 108 51 239 42 406-6 135 0 207 16 164 4-11 13-66 20-123 7-56 15-100 17-99 2 2 10 31 18 63 19 72 76 158 127 192 43 28 43 27 23 76-8 20-12 36-9 36 4 0 31-16 59-35 76-50 209-91 355-110 69-8 180-23 247-32 227-30 399-9 679 81l109 35 81-77 81-77-9-87c-4-48-17-128-27-178l-19-92 63-132c82-169 120-281 145-419 15-89 29-130 64-199l44-86-56-36c-32-19-104-69-162-110-127-91-222-140-315-161-84-20-137-15-293 26-63 17-116 29-118 26-9-9 90-90 139-113 68-31 207-33 319-5 126 33 293 121 387 206 22 20 45 34 51 30 6-3 8-10 5-15-5-8 2-200 18-525 1-39-1-49-12-47-71 15-64 21-93-75-28-90-76-179-103-189-56-22-140 42-189 144-19 40-33 59-42 55-19-7-19-10 22-108 47-111 88-155 145-155 81 0 156 61 215 175 16 30 31 55 34 55 3 0 22-40 43-89 44-106 45-129 13-311-54-299-58-548-14-750 20-96 22-132 23-415 1-335 0-322 52-536 32-132 39-151 75-193 39-45 41-46 99-46 32 0 59 4 59 9 0 5-25 26-55 47-51 35-57 42-74 103-46 158-60 315-61 671 0 258-11 366-51 521-18 72-20 97-14 174 4 50 7 108 7 130-1 22-2 69-3 105-1 45 8 103 30 187 17 67 31 136 31 154 0 18-18 84-39 148l-39 116-6 235c-3 129-13 276-21 325-8 50-14 97-15 105 0 10 28 30 69 50 39 19 70 39 70 44 1 9-78 125-109 161-10 11-23 54-30 95-17 103-44 190-139 442-44 119-81 227-81 240 0 13 11 67 25 119 41 157 34 193-56 297-16 18-36 46-44 62-37 72-63 413-47 615 9 107 15 133 57 239 76 192 75 189 26 432-46 231-58 377-31 394 25 16 55 12 120-16 33-15 63-25 66-22 11 11-18 60-56 94-23 21-55 66-75 108-19 40-36 64-39 56"/><path d="m1501 6743c-13-38-25-91-28-119-5-50 11-149 26-159 12-7 81 206 81 251 0 39-29 94-49 94-5 0-18-30-30-67"/><path d="m2750 6645c-17-21 6-46 68-76 72-34 179-30 305 10 53 18 97 36 97 40 0 27-101 28-195 2l-70-20-70 30c-78 32-116 36-135 14"/><path d="m3577 6518c8-69 31-150 79-286 41-113 46-136 45-212 0-47-7-141-15-210-19-149-20-174-5-164 19 12 57 109 74 190 31 149 2 311-104 574-61 151-83 183-74 108"/><path d="m2985 6441c-17-4-70-32-119-61-94-58-93-55-28-91 24-13 31-26 40-74 19-94 20-92-59-115-100-30-151-54-190-88-23-20-50-32-81-37-42-6-50-12-83-61-21-30-40-54-44-54-3 0-62 27-130 60-68 33-125 60-127 60-15 0 4-30 53-81 39-41 79-71 126-94l70-33 56 55c58 56 186 126 383 208l88 37 112-17c62-9 139-23 172-31 32-8 61-12 65-9 3 4-14 25-38 46-54 49-127 71-227 71-72-1-74 0-80 26-8 33-49 117-75 154-22 31-22 31 50 52 64 19 144 21 190 5 18-6 34-9 36-7 6 6-107 88-120 87-5-1-24-4-40-8"/><path d="m2690 6430c-84-23-159-89-240-210-23-36-63-89-87-117-25-29-41-53-38-53 4 0 48 23 97 52 80 46 95 59 138 124 27 39 75 102 106 139 31 36 55 67 53 69-2 2-15 0-29-4"/><path d="m1300 6335c-25-7-70-21-100-29l-55-16 1-67c1-38 3-69 5-71 2-2 51 42 109 97 58 56 101 101 95 100-5 0-30-7-55-14"/><path d="m1441 6271c-47-12-49-34-6-120l39-81-12-192c-6-106-9-236-6-288 8-118-3-164-89-377-57-141-87-231-87-262 0-27 20-4 60 69 25 44 47 76 51 72 3-4 14-38 24-77 10-38 21-74 25-78 7-8 50 69 50 90 0 6-13 41-30 77l-29 66 19 43c11 24 44 131 73 238l54 194-27 40-27 40 14 100c8 58 13 145 10 205-3 88-8 115-32 167-32 73-41 82-74 74"/><path d="m1701 6188c-53-44-55-47-45-121 6-45 8-47 58-65 28-11 73-23 99-26 59-9 227 12 227 28 0 6-16 24-36 40-33 26-40 28-69 18-52-19-135-15-175 9-33 20-69 56-70 71 0 4 26 12 58 19 85 18 90 23 49 48-19 11-37 21-39 21-3 0-28-19-57-42"/><path d="m805 5875c16-146 56-325 74-325 12 0 41 109 41 151 0 66-28 135-76 186l-45 48 6-60"/><path d="m2210 5691l-95-6 4-35c1-19 8-38 15-42 21-14 136-8 169 8 38 20 66 43 78 66 11 20 17 20-171 9"/><path d="m1850 5619c0-34 50-116 88-145 36-28 109-54 151-54 34 0 101 19 101 28 0 4-30 23-67 41-38 18-111 58-163 88-52 31-98 58-102 60-5 2-8-6-8-18"/><path d="m3420 5526c0-2 18-57 41-122 67-196 97-251 207-381 172-203 208-274 237-457 24-149 10-212-54-246-22-12-29-19-18-20 21 0 21-4 2-77-8-31-15-98-15-148 0-79 5-104 39-202 47-135 63-160 149-220 37-25 84-59 105-76 21-16 40-27 41-26 9 10 46 89 46 98 0 5-40 24-90 41-67 24-91 38-96 54-4 11-33 77-66 146l-59 124 12 56c6 30 24 109 41 175 51 201 49 380-7 517-33 80-116 203-215 316-57 65-100 128-147 215-86 161-132 237-144 237-5 0-9-2-9-4"/><path d="m1143 5503c-19-4-23-11-23-43 0-41 17-55 54-44 24 8 36 22 36 46 0 17-26 49-38 47-4-1-17-4-29-6"/><path d="m2901 5295c-35-40-41-88-14-104 51-28 132 86 91 127-21 21-45 13-77-23"/><path d="m3136 4823c-308-119-647-153-886-88-150 41-324 85-336 85-11 0-85-169-98-224-16-66 0-237 17-186 3 8 28 88 56 178 29 89 55 162 58 162 9 0 247-72 252-76 2-2-11-33-28-69-42-91-109-153-280-261-174-110-182-123-47-84 91 26 189 72 252 120 65 49 129 144 145 215 7 30 13 55 13 55 1 0 35-7 76-16 99-21 300-20 426 1 118 21 291 68 342 94 44 23 118 85 132 112 13 24 14 24-94-18"/><path d="m3610 4716c-36-24-78-58-93-76-30-35-67-102-67-120 0-12 102 55 156 102 36 32 90 123 76 131-4 3-36-14-72-37"/><path d="m1597 4558c3-32 0-216-7-408-7-193-10-353-7-356 7-7 45 96 68 186 25 97 34 263 20 365-14 98-48 227-66 252-12 16-13 10-8-39"/><path d="m3024 4489c-169-16-426-71-574-123-73-25-183-93-175-107 3-4 11-6 18-4 24 8 465 117 552 136 49 11 141 24 204 29 119 9 162 25 169 64 3 13-6 16-55 15-32-1-95-5-139-10"/><path d="m3075 4375c-149-37-227-65-341-123-80-40-220-139-259-182l-20-23 25 8c14 4 81 35 150 70 69 34 206 95 305 135 187 75 295 127 295 141 0 13-11 11-155-26"/><path d="m3299 4135c-10-9-207-54-304-69-55-9-221-29-370-46-256-29-455-56-463-64-2-2 21-12 50-22 70-23 169-22 338 4 74 11 208 25 296 31 176 12 288 36 364 77 48 26 123 94 104 94-6 0-13-2-15-5"/><path d="m1296 4113c-12-12-6-179 8-233 19-74 54-152 64-146 14 8-41 371-58 381-4 2-10 2-14-2"/><path d="m1803 3939c-246-143-388-467-370-839 9-187 65-356 151-457 20-22 36-44 36-48 0-3-11-21-24-38-44-59-104-354-126-627-12-139-16-156-91-388-79-242-119-405-119-480 0-61 35-248 83-447l44-180 38-3c35-3 37-2 31 20-123 437-142 623-87 839 29 114 130 399 141 399 3 0 28-57 55-126 47-122 124-261 132-238 2 7-25 124-61 260-86 327-101 415-86 508 17 113 109 444 129 468 4 4 35-16 71-45 36-29 79-62 95-75l30-23-42 4-42 5-6-42c-3-22-5-77-3-121l3-80 30 77 29 77 112 30c61 17 116 31 121 31 5 0 31-27 56-60 26-33 51-60 57-60 5 0 1 21-9 48-10 26-31 80-46 120-16 40-31 71-34 70-3-2-39-20-78-41-40-20-78-37-84-37-18 0-90 61-83 71 3 5 17 9 32 9 51 0 152 57 216 123 63 65 140 196 175 299 18 53 18 53 67 60 89 12 147 10 141-5-3-8-20-85-37-172-42-207-69-288-139-415-79-142-116-235-206-505-60-179-96-269-165-406-101-202-114-248-134-479-7-85-13-155-12-156 1-1 18-4 39-7l37-6v64c0 107 21 265 46 354 29 100 76 213 91 218 6 2 12-39 16-109 16-263 8-323-69-517-26-64-53-137-60-163-12-38-33-198-34-255 0-9 16-13 49-13h49l7 77c9 117 28 195 85 348 71 191 73 211 66 480-9 286-2 331 79 589 85 269 106 324 172 439 100 176 132 280 161 529 18 146 20 156 56 211l38 59 50-69c65-90 206-317 229-368 11-25 25-100 34-180 14-130 18-146 64-244 62-135 66-156 47-244-27-127-38-228-45-402-7-203-8-198 114-455 91-190 107-242 126-396 12-99 10-139-18-331l-6-43h41c36 0 41 3 46 27 24 127 10 476-24 587-11 34-43 112-71 172-61 127-91 260-109 467-11 127-5 347 9 375 4 7 17-19 31-63 13-42 27-78 32-81 4-3 21 2 38 11 25 13 30 22 30 51 0 45-40 164-84 253-53 105-76 184-86 296-15 174-55 257-255 529-83 112-112 145-134 149-27 6-28 7-23 64 11 156 10 154 82 201 48 31 74 42 104 42 90 0 172 72 216 190 31 84 60 190 51 190-9 0-121-164-165-242-24-40-32-47-69-53-48-9-258-74-269-83-4-4-12-47-17-97-19-158-31-212-55-234-26-24-219-141-224-136-2 2 2 44 8 94 19 137 8 324-25 436-48 164-130 287-218 328-45 22-193 67-215 67-4 0-30-14-59-31m288-129c101-100 131-155 159-291 25-118 26-313 4-429-54-288-230-495-419-494-74 0-122 21-184 84-55 55-103 148-132 257-17 60-22 108-22 213-1 195 27 320 105 472 48 94 137 182 259 257l82 50 31-17c17-9 69-55 117-102"/><path d="m1070 3851c-23-44-2-141 31-141 24 0 49 42 49 83 0 65-55 105-80 58"/><path d="m1850 2020c0-29 52-80 82-80 34 0 114 29 128 45 13 16 11 17-106 34-40 6-79 14-88 17-12 4-16 0-16-16"/></g></svg>